# xmcd
#
# Track frame offsets:
#	150
#	12870
#	23155
#	37143
#	51477
#	64722
#	75435
#	83945
#	96481
#	109842
#	119309
#	131566
#	146185
#	160534
#	176528
#	187450
#	199486
#	216414
#
# Disc length: 3038 seconds
#
# Revision: 2
# Processed by: cddbd v1.5.2PL0 Copyright (c) Steve Scherf et al.
# Submitted via: EasyCDDAExtractor 16.0.8.2
#
DISCID=0f0bdc12
DTITLE=Συλλογικός δίσκος - Oldies but goodies 02
DYEAR=2010
DGENRE=Ποικίλη
TTITLE0=The Idols - Σού 'δωσα την αγάπη μου [ελλ. απόδ. Γ. Παπαστεφάνου]
TTITLE1=The Esquires - Καθε μέρα που περνάει [ελλ. απόδ. Θοδ. Σαραντής]
TTITLE2=The Sounds - Το έτος 2525 [ελλ. απόδ. Ρέττη Ζαλοκώστα]
TTITLE3=Ελπίδα - Το ξυπνητήρι [Ά. Σκαμάγκας-Γ. Ματαράγκας]
TTITLE4=Χρυσός Τέρης - Ελα κοντά μου [ελλ. απόδ. Γ. Παπαστεφάνου]
TTITLE5=Χριστίνα - Φλέρτ [ελλ. απόδ. Ν. Ελληναίος]
TTITLE6=Άνευ ερμηνευτού - Το ρολόϊ [Βαγγ. Παπαθανασίου-Γ. Ρωμανός]
TTITLE7=Κουρούκλη Ζωή - Ζάλη [ελλ. απόδ. Ρέττη Ζαλοκώστα]
TTITLE8=The Forminx - Love without love [Βασ. Μπακόπουλος-Ν. Μαστοράκης]
TTITLE9=The Idols - She's a lady
TTITLE10=Tammy - Πέταξε τις λύπες σου [ελλ. απόδ. Ρέττη Ζαλοκώστα]
TTITLE11=Ariones - E alora dai
TTITLE12=Sky rockets Combo - Le telephone
TTITLE13=Γιοβάννα - Je reviens te chercher
TTITLE14=Χριστίνα - Έϊ, έϊ πού πρέχει ο κόσμος [ελλ. απόδ. Αθαν. Τσόγκας]
TTITLE15=Pinelli Tony - Rosalie yanka (Italian yanka)[T. Pinelli-Γ. Θεοδωρίδης
TTITLE15=]
TTITLE16=Χρυσός Τέρης - I love you [Γιώργος Μουζάκης]
TTITLE17=Αλεξοπούλου Μαίρη - Τι χαρά (Rivoluzione)[ελλ. απόδ. Νότης Κύτταρης]
EXTD=YEAR: 2010
EXTT0=
EXTT1=
EXTT2=
EXTT3=
EXTT4=
EXTT5=
EXTT6=
EXTT7=
EXTT8=
EXTT9=
EXTT10=
EXTT11=
EXTT12=
EXTT13=
EXTT14=
EXTT15=
EXTT16=
EXTT17=
PLAYORDER=
